<?xml version="1.0" encoding="UTF-8"?><!DOCTYPE svg PUBLIC "-//W3C//DTD SVG 1.1//EN" "http://www.w3.org/Graphics/SVG/1.1/DTD/svg11.dtd"><svg xmlns="http://www.w3.org/2000/svg" xmlns:xlink="http://www.w3.org/1999/xlink"><defs>
<clipPath id="clip0_20_170">
<rect width="7" height="14" fill="white" transform="translate(12 9)"/>
</clipPath>

<clipPath id="clip0_20_155">
<rect width="16" height="18" fill="white" transform="translate(8 7)"/>
</clipPath>

<clipPath id="clip0_20_160">
<rect width="16" height="15" fill="white" transform="translate(8 8)"/>
</clipPath>

<clipPath id="clip0_20_165">
<rect width="18" height="14" fill="white" transform="translate(7.00006 9)"/>
</clipPath>
</defs><symbol id="arrow-left" viewBox="0 0 32 32">
<path d="M20.8267 6.00003L11.3333 15.4934L20.8267 24.9867" stroke="white" stroke-width="2" stroke-miterlimit="10" stroke-linecap="round" stroke-linejoin="round"/>
</symbol><symbol id="arrow-right" viewBox="0 0 12 21">
<path d="M1.17334 1.00003L10.6667 10.4934L1.17334 19.9867" stroke="white" stroke-width="2" stroke-miterlimit="10" stroke-linecap="round" stroke-linejoin="round"/>
</symbol><symbol id="certificate-icon" viewBox="0 0 32 32">
<path d="M15.8934 10.0267L16.68 11.8667C16.7334 12.0267 16.88 12.12 17.0267 12.1334L19.0267 12.32C19.4534 12.36 19.6134 12.88 19.3067 13.16L17.8 14.48C17.68 14.5867 17.6267 14.7467 17.6667 14.8934L18.1067 16.8534C18.2 17.2667 17.76 17.5867 17.3867 17.3734L15.6667 16.3467C15.5334 16.2667 15.36 16.2667 15.2267 16.3467L13.5067 17.3734C13.1467 17.5867 12.6934 17.2667 12.7867 16.8534L13.2267 14.8934C13.2667 14.7467 13.2134 14.5867 13.0934 14.48L11.5867 13.16C11.2667 12.88 11.44 12.36 11.8667 12.32L13.8667 12.1334C14.0267 12.12 14.16 12.0267 14.2267 11.88L15.0134 10.04C15.1734 9.64003 15.72 9.64003 15.8934 10.0267Z" stroke="#F0C932" stroke-width="1.33333" stroke-miterlimit="10" stroke-linecap="round" stroke-linejoin="round"/>
<path d="M24.5165 13.9262C24.5509 8.91879 20.5196 4.83157 15.5122 4.7971C10.5048 4.76264 6.4176 8.79399 6.38314 13.8014C6.34868 18.8088 10.38 22.896 15.3874 22.9304C20.3948 22.9649 24.482 18.9336 24.5165 13.9262Z" stroke="#F0C932" stroke-width="1.33333" stroke-miterlimit="10" stroke-linecap="round" stroke-linejoin="round"/>
<path d="M14.2133 22.84L11.96 28.5067L9.10665 25.24L4.79999 25.64L7.65332 18.4933" stroke="#F0C932" stroke-width="1.33333" stroke-miterlimit="10" stroke-linecap="round" stroke-linejoin="round"/>
<path d="M16.6667 22.84L18.9334 28.5067L21.7734 25.24L26.0934 25.64L23.2267 18.4933" stroke="#F0C932" stroke-width="1.33333" stroke-miterlimit="10" stroke-linecap="round" stroke-linejoin="round"/>
</symbol><symbol id="course-icon" viewBox="0 0 32 32">
<path d="M27.5199 13.0133L16.4532 17.1866C15.9732 17.3733 15.4532 17.3733 14.9732 17.1866L3.90652 13.0133C3.31986 12.8 3.31986 12 3.89319 11.7733L14.9599 7.59996C15.4399 7.41329 15.9599 7.41329 16.4399 7.59996L27.5065 11.7733C28.0799 11.9866 28.0799 12.8 27.5199 13.0133Z" stroke="#F0C932" stroke-width="1.6" stroke-miterlimit="10" stroke-linecap="round" stroke-linejoin="round"/>
<path d="M3.4668 12.4V19.24" stroke="#F0C932" stroke-width="1.6" stroke-miterlimit="10" stroke-linecap="round" stroke-linejoin="round"/>
<path d="M7.25325 14.5334V22.92C7.25325 24.1334 11.0399 25.1334 15.7066 25.1334C20.3733 25.1334 24.1599 24.1467 24.1599 22.92V14.5334" stroke="#F0C932" stroke-width="1.6" stroke-miterlimit="10" stroke-linecap="round" stroke-linejoin="round"/>
</symbol><symbol id="facebook" viewBox="0 0 32 32">
<rect x="0.5" y="0.5" width="31" height="31" stroke="white"/>
<g clip-path="url(#clip0_20_170)">
<path d="M13.7869 23V16.4308H12V14.0656H13.7869V12.0454C13.7869 10.4578 14.8425 9 17.2747 9C18.2595 9 18.9877 9.09177 18.9877 9.09177L18.9303 11.3005C18.9303 11.3005 18.1876 11.2935 17.3772 11.2935C16.5002 11.2935 16.3596 11.6864 16.3596 12.3385V14.0656H19L18.8851 16.4308H16.3596V23H13.7869Z" fill="white"/>
</g>

</symbol><symbol id="instagram" viewBox="0 0 32 32">
<rect x="0.5" y="0.5" width="31" height="31" stroke="white"/>
<g clip-path="url(#clip0_20_155)">
<path d="M15.877 11.9571C13.6295 11.9571 11.8167 13.7606 11.8167 15.9965C11.8167 18.2325 13.6295 20.036 15.877 20.036C18.1246 20.036 19.9374 18.2325 19.9374 15.9965C19.9374 13.7606 18.1246 11.9571 15.877 11.9571ZM15.877 18.6227C14.4246 18.6227 13.2373 17.445 13.2373 15.9965C13.2373 14.5481 14.4211 13.3704 15.877 13.3704C17.333 13.3704 18.5168 14.5481 18.5168 15.9965C18.5168 17.445 17.3295 18.6227 15.877 18.6227ZM21.0506 11.7918C21.0506 12.3157 20.6265 12.734 20.1035 12.734C19.577 12.734 19.1564 12.3122 19.1564 11.7918C19.1564 11.2715 19.5805 10.8497 20.1035 10.8497C20.6265 10.8497 21.0506 11.2715 21.0506 11.7918ZM23.7398 12.7481C23.6797 11.486 23.39 10.368 22.4606 9.44692C21.5347 8.52583 20.411 8.23755 19.1423 8.17427C17.8348 8.10044 13.9158 8.10044 12.6083 8.17427C11.3431 8.23403 10.2194 8.52231 9.28998 9.44341C8.36059 10.3645 8.07434 11.4825 8.01074 12.7446C7.93653 14.0454 7.93653 17.9442 8.01074 19.245C8.07081 20.5071 8.36059 21.625 9.28998 22.5461C10.2194 23.4672 11.3396 23.7555 12.6083 23.8188C13.9158 23.8926 17.8348 23.8926 19.1423 23.8188C20.411 23.759 21.5347 23.4707 22.4606 22.5461C23.3864 21.625 23.6762 20.5071 23.7398 19.245C23.814 17.9442 23.814 14.0489 23.7398 12.7481ZM22.0507 20.6407C21.775 21.3297 21.2414 21.8606 20.5452 22.1383C19.5028 22.5497 17.0291 22.4547 15.877 22.4547C14.725 22.4547 12.2478 22.5461 11.2089 22.1383C10.5162 21.8641 9.98261 21.3332 9.70344 20.6407C9.28998 19.6036 9.3854 17.1426 9.3854 15.9965C9.3854 14.8504 9.29352 12.386 9.70344 11.3524C9.97908 10.6633 10.5127 10.1325 11.2089 9.85474C12.2513 9.44341 14.725 9.53833 15.877 9.53833C17.0291 9.53833 19.5063 9.44692 20.5452 9.85474C21.2379 10.129 21.7715 10.6598 22.0507 11.3524C22.4641 12.3895 22.3687 14.8504 22.3687 15.9965C22.3687 17.1426 22.4641 19.6071 22.0507 20.6407Z" fill="white"/>
</g>

</symbol><symbol id="linkedin" viewBox="0 0 32 32">
<rect x="0.5" y="0.5" width="31" height="31" stroke="white"/>
<g clip-path="url(#clip0_20_160)">
<path d="M11.5525 23V12.8795H8.15826V23H11.5525ZM9.8558 11.4969C11.0394 11.4969 11.7762 10.7198 11.7762 9.74862C11.7541 8.75556 11.0395 8 9.87826 8C8.71724 8 7.95801 8.75558 7.95801 9.74862C7.95801 10.7198 8.69457 11.4969 9.83364 11.4969H9.85569H9.8558ZM13.4311 23H16.8253V17.3482C16.8253 17.0458 16.8474 16.7436 16.937 16.5274C17.1824 15.923 17.7409 15.2971 18.6785 15.2971C19.9067 15.2971 20.3981 16.2252 20.3981 17.5857V22.9999H23.792V17.1969C23.792 14.0883 22.1175 12.6419 19.8843 12.6419C18.0533 12.6419 17.2494 13.6563 16.8027 14.3471H16.8254V12.8793H13.4312C13.4758 13.829 13.4312 22.9998 13.4312 22.9998L13.4311 23Z" fill="white"/>
</g>

</symbol><symbol id="play-icon" viewBox="0 0 33 32">
<circle cx="16.25" cy="16" r="16" fill="#F0C932"/>
<path d="M23.5 16L13 22.0622V9.93782L23.5 16Z" fill="white"/>
</symbol><symbol id="star-bg" viewBox="0 0 22 20">
<path d="M10.5245 0.463526C10.6741 0.00287056 11.3259 0.00287008 11.4755 0.463525L13.5819 6.9463C13.6488 7.15232 13.8408 7.2918 14.0574 7.2918H20.8738C21.3582 7.2918 21.5596 7.9116 21.1677 8.1963L15.6531 12.2029C15.4779 12.3302 15.4046 12.5559 15.4715 12.7619L17.5779 19.2447C17.7276 19.7053 17.2003 20.0884 16.8085 19.8037L11.2939 15.7971C11.1186 15.6698 10.8814 15.6698 10.7061 15.7971L5.19153 19.8037C4.79967 20.0884 4.27243 19.7053 4.42211 19.2447L6.52849 12.7619C6.59543 12.5559 6.5221 12.3302 6.34685 12.2029L0.832272 8.1963C0.440415 7.9116 0.641802 7.2918 1.12616 7.2918H7.94256C8.15917 7.2918 8.35115 7.15232 8.41809 6.9463L10.5245 0.463526Z" fill="black"/>
</symbol><symbol id="twitter" viewBox="0 0 32 32">
<rect x="0.5" y="0.5" width="31" height="31" stroke="white"/>
<g clip-path="url(#clip0_20_165)">
<path d="M24.7793 10.7049C24.1124 10.9894 23.405 11.1761 22.6806 11.2589C23.4351 10.8235 24.0145 10.134 24.2873 9.31247C23.57 9.72228 22.7853 10.011 21.9669 10.1662C21.3004 9.48248 20.3508 9.05518 19.2997 9.05518C17.2817 9.05518 15.6456 10.6304 15.6456 12.5733C15.6456 12.849 15.6779 13.1175 15.7402 13.3751C12.7034 13.2283 10.0109 11.8277 8.20866 9.69918C7.89419 10.2188 7.714 10.8232 7.714 11.4679C7.714 12.6885 8.35915 13.7653 9.33956 14.3962C8.75929 14.3787 8.19179 14.2278 7.68443 13.9561C7.68422 13.9708 7.68422 13.9856 7.68422 14.0004C7.68422 15.705 8.94376 17.1269 10.6153 17.4501C10.0772 17.591 9.51281 17.6117 8.96519 17.5104C9.43014 18.9082 10.7796 19.9253 12.3786 19.9537C11.128 20.8973 9.55238 21.4598 7.84048 21.4598C7.5455 21.4598 7.25468 21.4431 6.96881 21.4106C8.58588 22.4088 10.5066 22.9913 12.5701 22.9913C19.2913 22.9913 22.9666 17.6303 22.9666 12.9813C22.9666 12.8287 22.9631 12.677 22.956 12.5261C23.6714 12.0282 24.2888 11.4115 24.7793 10.7049Z" fill="white"/>
</g>

</symbol><symbol id="user-icon" viewBox="0 0 32 32">
<path d="M16.0797 15.4933C18.6644 15.4933 20.7597 13.398 20.7597 10.8133C20.7597 8.22861 18.6644 6.1333 16.0797 6.1333C13.495 6.1333 11.3997 8.22861 11.3997 10.8133C11.3997 13.398 13.495 15.4933 16.0797 15.4933Z" stroke="#F0C932" stroke-width="1.6" stroke-miterlimit="10" stroke-linecap="round" stroke-linejoin="round"/>
<path d="M24.6801 27.2C25.5601 27.2 26.2401 26.3466 25.9601 25.4933C24.6134 21.32 20.7067 18.2933 16.0801 18.2933C11.4534 18.2933 7.54673 21.32 6.20006 25.4933C5.9334 26.3333 6.60006 27.2 7.48006 27.2H24.6801Z" stroke="#F0C932" stroke-width="1.6" stroke-miterlimit="10" stroke-linecap="round" stroke-linejoin="round"/>
</symbol></svg>