<svg width="160" height="34" fill="none" xmlns="http://www.w3.org/2000/svg"><g clip-path="url(#clip0_24_78)"><path d="M47.114 16.135V22H45.14v-7.396h1.852l.123 1.53zm-.273 1.907h-.547c0-.515.062-.989.184-1.422.128-.437.313-.816.554-1.135.246-.323.55-.574.91-.752.36-.177.776-.266 1.25-.266.328 0 .63.05.903.15.273.096.508.249.704.458.2.205.355.474.465.807.109.328.164.722.164 1.182V22h-1.969v-4.717c0-.337-.046-.597-.137-.78a.776.776 0 00-.39-.382 1.46 1.46 0 00-.594-.11c-.255 0-.479.053-.67.158a1.33 1.33 0 00-.465.437 1.956 1.956 0 00-.273.643c-.06.246-.09.51-.09.793zm4.402-.226l-.704.09c0-.484.06-.933.178-1.347.123-.415.303-.78.54-1.094.241-.315.54-.558.895-.732a2.717 2.717 0 011.23-.266c.356 0 .68.052.971.157.292.1.54.262.746.485.21.22.369.506.478.862.114.355.171.79.171 1.305V22h-1.975v-4.724c0-.341-.046-.601-.137-.779a.717.717 0 00-.383-.376 1.44 1.44 0 00-.588-.11c-.237 0-.444.049-.622.144a1.237 1.237 0 00-.444.383 1.754 1.754 0 00-.267.574c-.06.215-.089.45-.089.704zm10.022 2.516v-3.295c0-.237-.04-.44-.117-.608a.864.864 0 00-.362-.404c-.16-.095-.367-.143-.622-.143-.219 0-.408.039-.567.116a.823.823 0 00-.37.321.889.889 0 00-.13.486H57.13c0-.315.073-.613.219-.896.145-.282.357-.53.635-.745.278-.219.609-.39.992-.513.387-.123.82-.184 1.298-.184.575 0 1.085.095 1.532.287a2.34 2.34 0 011.052.861c.26.383.39.862.39 1.436v3.165c0 .405.025.738.075.998.05.255.123.478.219.67V22h-1.99a2.843 2.843 0 01-.218-.752 6.192 6.192 0 01-.068-.916zm.26-2.837l.013 1.114h-1.1a2.3 2.3 0 00-.677.09 1.26 1.26 0 00-.472.252.977.977 0 00-.273.37 1.277 1.277 0 00-.082.464c0 .169.038.321.116.458a.83.83 0 00.335.315c.146.073.317.109.513.109.296 0 .553-.06.772-.178a1.41 1.41 0 00.506-.437c.123-.173.187-.337.191-.492l.52.834c-.073.186-.173.38-.301.58-.123.201-.28.39-.472.568a2.434 2.434 0 01-.69.43c-.27.11-.588.165-.957.165-.47 0-.896-.094-1.279-.28a2.33 2.33 0 01-.902-.787 2.064 2.064 0 01-.328-1.148c0-.387.073-.732.219-1.032.146-.301.36-.554.642-.76.287-.209.645-.366 1.074-.47.428-.11.925-.165 1.49-.165h1.141zm5.167-1.312V22h-1.968v-7.396h1.845l.123 1.579zm-.287 1.859h-.533c0-.547.07-1.04.212-1.477.141-.442.34-.818.595-1.128.255-.314.558-.553.909-.717a2.74 2.74 0 011.19-.253c.346 0 .662.05.95.15.287.1.533.26.738.479.21.219.369.508.478.868.114.36.171.8.171 1.32V22h-1.982v-4.724c0-.328-.046-.583-.137-.765a.768.768 0 00-.403-.383 1.574 1.574 0 00-.643-.116 1.44 1.44 0 00-.69.157 1.37 1.37 0 00-.479.437 2.066 2.066 0 00-.28.643c-.064.246-.096.51-.096.793zm10.89-3.439h1.784v7.15c0 .675-.15 1.247-.451 1.717a2.784 2.784 0 01-1.244 1.073c-.533.246-1.153.37-1.86.37-.31 0-.638-.042-.984-.124a3.938 3.938 0 01-.984-.383 2.6 2.6 0 01-.78-.656l.868-1.162c.228.264.493.47.793.615.301.15.634.226.999.226.355 0 .656-.066.902-.198.246-.128.435-.317.567-.568.132-.246.198-.544.198-.895v-5.456l.192-1.709zm-4.977 3.788v-.144c0-.565.069-1.078.205-1.538.142-.465.34-.864.595-1.196.26-.333.574-.59.944-.773a2.79 2.79 0 011.25-.273c.493 0 .905.09 1.238.273.332.182.606.442.82.78.214.332.38.726.5 1.182.122.451.218.946.286 1.483v.315a8.74 8.74 0 01-.307 1.436 4.41 4.41 0 01-.54 1.162 2.389 2.389 0 01-.834.765c-.328.183-.72.274-1.176.274a2.7 2.7 0 01-1.238-.28 2.762 2.762 0 01-.936-.787 3.746 3.746 0 01-.602-1.19 5.168 5.168 0 01-.205-1.49zm1.97-.144v.144c0 .305.029.59.088.854.06.264.15.5.273.704.128.2.285.358.472.472.192.11.417.164.677.164.36 0 .654-.075.882-.226.228-.155.398-.367.512-.635.114-.27.18-.58.199-.93v-.896a3.02 3.02 0 00-.117-.772 1.851 1.851 0 00-.287-.595 1.24 1.24 0 00-.478-.383 1.642 1.642 0 00-.698-.136c-.26 0-.485.059-.676.177a1.456 1.456 0 00-.472.472c-.123.2-.216.438-.28.711-.064.269-.096.56-.096.875zm9.378 2.352c.242 0 .456-.046.643-.137.186-.096.332-.228.437-.397.11-.173.166-.376.171-.608h1.852c-.004.52-.143.982-.416 1.388-.274.4-.64.718-1.101.95-.46.228-.975.342-1.545.342-.574 0-1.075-.096-1.504-.287a2.935 2.935 0 01-1.06-.793 3.473 3.473 0 01-.635-1.19 4.914 4.914 0 01-.212-1.463v-.198c0-.524.07-1.012.212-1.463.141-.456.353-.852.636-1.19a2.901 2.901 0 011.06-.8c.423-.19.92-.286 1.49-.286.605 0 1.136.116 1.592.348.46.233.82.566 1.08.998.264.429.399.937.403 1.525h-1.852a1.544 1.544 0 00-.157-.67c-.096-.2-.237-.36-.424-.479a1.182 1.182 0 00-.677-.184c-.287 0-.522.061-.704.184a1.178 1.178 0 00-.424.493c-.1.205-.17.44-.212.704-.036.26-.054.533-.054.82v.198c0 .287.018.563.054.827.037.265.105.5.205.704.105.206.249.367.431.486.182.118.42.178.711.178zm3.93-2.222v-.144c0-.542.078-1.04.233-1.497.155-.46.38-.859.677-1.196.296-.337.66-.6 1.094-.786.433-.191.93-.287 1.49-.287.56 0 1.06.095 1.497.287a3.02 3.02 0 011.1.786c.301.337.53.736.684 1.196.155.456.233.955.233 1.497v.144a4.66 4.66 0 01-.233 1.497 3.489 3.489 0 01-.683 1.196 3.02 3.02 0 01-1.094.786c-.433.187-.93.28-1.49.28-.561 0-1.06-.093-1.498-.28a3.096 3.096 0 01-1.1-.786 3.547 3.547 0 01-.677-1.196 4.666 4.666 0 01-.232-1.497zm1.97-.144v.144c0 .31.027.6.081.868.055.269.142.506.26.711.123.2.283.358.479.472.196.114.435.17.718.17.273 0 .508-.056.704-.17a1.3 1.3 0 00.471-.472c.119-.205.205-.442.26-.71.06-.27.089-.56.089-.869v-.144c0-.3-.03-.583-.089-.847a2.24 2.24 0 00-.267-.711 1.325 1.325 0 00-.471-.492 1.35 1.35 0 00-.711-.178c-.278 0-.515.06-.711.178a1.4 1.4 0 00-.472.492 2.344 2.344 0 00-.26.71 4.18 4.18 0 00-.082.848zm10.616 2.154V11.5h1.982V22h-1.784l-.198-1.613zm-4.676-1.996v-.144c0-.565.064-1.078.191-1.538.128-.465.315-.864.56-1.196.247-.333.55-.59.91-.773.36-.182.77-.273 1.23-.273.433 0 .812.09 1.135.273.328.182.606.442.834.78.233.332.419.726.561 1.182.141.451.244.946.307 1.483v.315a7.858 7.858 0 01-.307 1.436 4.31 4.31 0 01-.561 1.162 2.47 2.47 0 01-.834.765c-.328.183-.71.274-1.148.274-.46 0-.87-.094-1.23-.28a2.611 2.611 0 01-.903-.787 3.766 3.766 0 01-.554-1.19 5.513 5.513 0 01-.191-1.49zm1.969-.144v.144c0 .305.022.59.068.854.05.264.13.5.24.704.113.2.259.358.437.472.182.11.403.164.663.164.337 0 .615-.075.834-.226.219-.155.385-.367.499-.635.118-.27.187-.58.205-.93v-.896a3.259 3.259 0 00-.123-.772 1.696 1.696 0 00-.287-.595 1.27 1.27 0 00-.465-.383 1.438 1.438 0 00-.65-.136 1.18 1.18 0 00-.656.177 1.31 1.31 0 00-.444.472c-.11.2-.192.438-.246.711-.05.269-.075.56-.075.875zm8.305-3.643V22h-1.975v-7.396h1.975zm-2.098-1.928c0-.287.1-.524.3-.711.201-.187.47-.28.807-.28.333 0 .599.093.8.28a.92.92 0 01.307.71.92.92 0 01-.307.712c-.201.187-.467.28-.8.28-.337 0-.606-.093-.807-.28a.93.93 0 01-.3-.711zm5.653 3.507V22h-1.969v-7.396h1.846l.123 1.579zm-.287 1.859h-.533c0-.547.07-1.04.212-1.477a3.36 3.36 0 01.594-1.128 2.56 2.56 0 01.909-.717 2.743 2.743 0 011.19-.253c.346 0 .663.05.95.15.287.1.533.26.738.479.21.219.37.508.479.868.114.36.171.8.171 1.32V22h-1.983v-4.724c0-.328-.045-.583-.136-.765a.768.768 0 00-.404-.383 1.571 1.571 0 00-.642-.116c-.265 0-.495.052-.691.157a1.37 1.37 0 00-.478.437 2.047 2.047 0 00-.28.643c-.064.246-.096.51-.096.793zm10.89-3.439h1.784v7.15c0 .675-.151 1.247-.451 1.717a2.785 2.785 0 01-1.245 1.073c-.533.246-1.153.37-1.859.37-.31 0-.638-.042-.984-.124a3.95 3.95 0 01-.985-.383 2.602 2.602 0 01-.779-.656l.868-1.162c.228.264.492.47.793.615.301.15.634.226.998.226.356 0 .656-.066.902-.198a1.31 1.31 0 00.568-.568c.132-.246.198-.544.198-.895v-5.456l.192-1.709zm-4.977 3.788v-.144c0-.565.068-1.078.205-1.538.141-.465.34-.864.595-1.196.26-.333.574-.59.943-.773a2.787 2.787 0 011.251-.273c.492 0 .905.09 1.237.273.333.182.607.442.821.78.214.332.38.726.499 1.182.123.451.218.946.287 1.483v.315a8.791 8.791 0 01-.308 1.436 4.434 4.434 0 01-.54 1.162 2.384 2.384 0 01-.834.765c-.328.183-.72.274-1.176.274a2.7 2.7 0 01-1.237-.28 2.759 2.759 0 01-.936-.787 3.736 3.736 0 01-.602-1.19 5.158 5.158 0 01-.205-1.49zm1.969-.144v.144c0 .305.029.59.089.854.059.264.15.5.273.704.128.2.285.358.472.472.191.11.417.164.676.164.36 0 .654-.075.882-.226a1.42 1.42 0 00.513-.635c.114-.27.18-.58.198-.93v-.896a3.034 3.034 0 00-.116-.772 1.847 1.847 0 00-.287-.595 1.242 1.242 0 00-.479-.383 1.64 1.64 0 00-.697-.136c-.26 0-.485.059-.677.177a1.447 1.447 0 00-.471.472c-.123.2-.217.438-.281.711-.063.269-.095.56-.095.875zm15.114 1.148a1.31 1.31 0 00-.082-.478.905.905 0 00-.287-.397 2.548 2.548 0 00-.595-.362 8.426 8.426 0 00-.991-.369 12.61 12.61 0 01-1.285-.492 5.287 5.287 0 01-1.067-.636 2.857 2.857 0 01-.724-.854 2.36 2.36 0 01-.26-1.128c0-.415.091-.791.273-1.128a2.6 2.6 0 01.766-.875 3.631 3.631 0 011.162-.568 5.262 5.262 0 011.484-.198c.733 0 1.374.132 1.92.397.547.264.971.626 1.272 1.087.305.46.458.986.458 1.579h-2.037c0-.292-.062-.547-.185-.766a1.247 1.247 0 00-.547-.526c-.241-.128-.547-.192-.916-.192-.355 0-.651.055-.888.164a1.19 1.19 0 00-.534.431 1.063 1.063 0 00-.177.601c0 .17.041.322.123.459.086.136.214.264.383.382.168.119.376.23.622.335.246.105.531.208.854.308a9.102 9.102 0 011.429.554 4.42 4.42 0 011.039.69c.278.255.488.545.629.868.141.324.212.69.212 1.1a2.6 2.6 0 01-.253 1.163 2.393 2.393 0 01-.732.868 3.437 3.437 0 01-1.141.54 5.531 5.531 0 01-1.484.185c-.492 0-.977-.064-1.456-.192a4.424 4.424 0 01-1.305-.594 2.988 2.988 0 01-.93-1.012c-.232-.41-.349-.896-.349-1.456h2.058c0 .31.048.572.143.786.096.214.231.387.404.52.178.132.387.227.629.287.246.059.515.088.806.088.356 0 .647-.05.875-.15.233-.1.404-.24.513-.417a1.09 1.09 0 00.171-.602zm6.945-4.791v1.394h-4.306v-1.394h4.306zm-3.24-1.826h1.969v6.993c0 .215.027.379.082.493a.491.491 0 00.26.239c.114.04.257.061.43.061.123 0 .233-.004.328-.013a4.19 4.19 0 00.253-.041l.007 1.449a3.68 3.68 0 01-.547.13 4.052 4.052 0 01-.649.048c-.433 0-.811-.07-1.135-.212a1.562 1.562 0 01-.738-.698c-.173-.319-.26-.738-.26-1.257v-7.192zm3.869 5.599v-.144c0-.542.078-1.04.233-1.497.155-.46.38-.859.676-1.196a3.04 3.04 0 011.094-.786c.433-.191.93-.287 1.49-.287.561 0 1.06.095 1.497.287a3.02 3.02 0 011.101.786c.301.337.529.736.684 1.196.155.456.232.955.232 1.497v.144a4.66 4.66 0 01-.232 1.497 3.486 3.486 0 01-.684 1.196 3.03 3.03 0 01-1.094.786c-.433.187-.929.28-1.49.28-.561 0-1.06-.093-1.497-.28a3.1 3.1 0 01-1.101-.786 3.552 3.552 0 01-.676-1.196 4.663 4.663 0 01-.233-1.497zm1.969-.144v.144c0 .31.027.6.082.868.055.269.141.506.26.711.123.2.282.358.478.472.196.114.435.17.718.17.273 0 .508-.056.704-.17.196-.114.353-.271.472-.472a2.37 2.37 0 00.26-.71c.059-.27.088-.56.088-.869v-.144c0-.3-.029-.583-.088-.847a2.247 2.247 0 00-.267-.711 1.329 1.329 0 00-.472-.492 1.35 1.35 0 00-.711-.178c-.278 0-.515.06-.711.178a1.4 1.4 0 00-.471.492 2.342 2.342 0 00-.26.71 4.159 4.159 0 00-.082.848zm8.217-2.016V22h-1.969v-7.396h1.853l.116 1.613zm2.228-1.661l-.034 1.825a4.745 4.745 0 00-.349-.034 3.534 3.534 0 00-.362-.02c-.278 0-.519.036-.725.108-.2.069-.369.171-.505.308a1.327 1.327 0 00-.301.5 2.47 2.47 0 00-.11.67l-.396-.124c0-.479.048-.918.144-1.32.095-.405.234-.758.417-1.059.186-.3.414-.533.683-.697.269-.164.577-.246.923-.246.109 0 .221.009.335.027.114.014.207.034.28.062zm4.197 7.58a4.123 4.123 0 01-1.544-.273 3.394 3.394 0 01-1.163-.772 3.428 3.428 0 01-.724-1.142 3.836 3.836 0 01-.253-1.394v-.274c0-.56.08-1.073.239-1.538a3.63 3.63 0 01.684-1.21 3 3 0 011.094-.786c.428-.187.911-.28 1.449-.28.524 0 .989.086 1.394.26.406.173.745.419 1.019.738a3.2 3.2 0 01.629 1.148c.141.442.212.934.212 1.477v.82h-5.879v-1.312h3.944v-.15c0-.274-.05-.518-.15-.732a1.164 1.164 0 00-.438-.52c-.196-.127-.446-.191-.752-.191-.26 0-.483.057-.67.17a1.324 1.324 0 00-.458.48c-.114.204-.2.446-.259.724a4.585 4.585 0 00-.082.902v.274c0 .296.041.57.123.82.086.25.207.467.362.65.159.182.351.323.574.423.228.1.485.15.773.15a2.4 2.4 0 00.991-.204c.31-.142.576-.354.8-.636l.957 1.039a2.913 2.913 0 01-.636.642 3.387 3.387 0 01-.957.506 3.95 3.95 0 01-1.279.192zM35.046 0H.214A.215.215 0 000 .215V33.72c0 .12.096.216.214.216h34.832a.214.214 0 00.214-.216V.215A.214.214 0 0035.046 0z" fill="#545BE8"/><path d="M9.32 7.468v18.999" stroke="#fff" stroke-width="3.082"/><path d="M15.012 7.468v9.463" stroke="#fff" stroke-width="3.076"/><path d="M19.349 7.469v3.214h5.432l3.94 8.143h3.55L26.634 7.469h-7.286z" fill="#fff"/><path d="M20.963 14.167v12.677" stroke="#fff" stroke-width="3.56"/></g><defs><clipPath id="clip0_24_78"><path fill="#fff" d="M0 0h160v34H0z"/></clipPath></defs></svg>