<svg width="32" height="32" fill="none" xmlns="http://www.w3.org/2000/svg"><path d="M15.893 10.027l.787 1.84a.4.4 0 00.347.266l2 .187c.426.04.586.56.28.84L17.8 14.48a.413.413 0 00-.133.413l.44 1.96a.483.483 0 01-.72.52l-1.72-1.026a.433.433 0 00-.44 0l-1.72 1.026c-.36.214-.814-.106-.72-.52l.44-1.96a.413.413 0 00-.134-.413l-1.506-1.32a.48.48 0 01.28-.84l2-.187a.428.428 0 00.36-.253l.786-1.84c.16-.4.707-.4.88-.013z" stroke="#F0C932" stroke-width="1.333" stroke-miterlimit="10" stroke-linecap="round" stroke-linejoin="round"/><path d="M24.517 13.926a9.067 9.067 0 10-18.134-.125 9.067 9.067 0 0018.134.125z" stroke="#F0C932" stroke-width="1.333" stroke-miterlimit="10" stroke-linecap="round" stroke-linejoin="round"/><path d="M14.213 22.84l-2.253 5.667-2.853-3.267-4.307.4 2.853-7.147m9.014 4.347l2.266 5.667 2.84-3.267 4.32.4-2.866-7.147" stroke="#F0C932" stroke-width="1.333" stroke-miterlimit="10" stroke-linecap="round" stroke-linejoin="round"/></svg>