<svg width="32" height="32" fill="none" xmlns="http://www.w3.org/2000/svg"><path stroke="#fff" d="M.5.5h31v31H.5z"/><g clip-path="url(#clip0_20_155)"><path d="M15.877 11.957a4.043 4.043 0 00-4.06 4.04 4.043 4.043 0 004.06 4.039 4.044 4.044 0 004.06-4.04 4.043 4.043 0 00-4.06-4.039zm0 6.666a2.638 2.638 0 01-2.64-2.627 2.635 2.635 0 012.64-2.626 2.635 2.635 0 012.64 2.627 2.638 2.638 0 01-2.64 2.626zm5.174-6.831a.942.942 0 01-.947.942.942.942 0 110-1.884c.523 0 .947.421.947.942zm2.689.956c-.06-1.262-.35-2.38-1.28-3.301-.925-.921-2.049-1.21-3.318-1.273-1.307-.074-5.226-.074-6.534 0-1.265.06-2.389.348-3.318 1.27-.93.92-1.216 2.038-1.28 3.3-.073 1.301-.073 5.2 0 6.501.06 1.262.35 2.38 1.28 3.301.93.921 2.05 1.21 3.318 1.273 1.308.074 5.227.074 6.534 0 1.269-.06 2.393-.348 3.319-1.273.925-.921 1.215-2.039 1.279-3.301.074-1.3.074-5.196 0-6.497zm-1.69 7.893a2.666 2.666 0 01-1.505 1.497c-1.042.412-3.516.317-4.668.317-1.152 0-3.63.091-4.668-.317a2.666 2.666 0 01-1.506-1.497c-.413-1.037-.318-3.498-.318-4.644 0-1.147-.091-3.611.318-4.645.276-.689.81-1.22 1.506-1.497 1.042-.412 3.516-.317 4.668-.317 1.152 0 3.63-.091 4.668.317a2.666 2.666 0 011.506 1.497c.413 1.037.318 3.498.318 4.644 0 1.147.095 3.611-.318 4.645z" fill="#fff"/></g><defs><clipPath id="clip0_20_155"><path fill="#fff" transform="translate(8 7)" d="M0 0h16v18H0z"/></clipPath></defs></svg>