<svg width="32" height="32" fill="none" xmlns="http://www.w3.org/2000/svg"><path stroke="#fff" d="M.5.5h31v31H.5z"/><g clip-path="url(#clip0_20_160)"><path d="M11.553 23V12.88H8.158V23h3.395zM9.855 11.497c1.183 0 1.92-.777 1.92-1.748C11.754 8.756 11.04 8 9.878 8c-1.16 0-1.92.756-1.92 1.749 0 .97.737 1.748 1.876 1.748h.022zM13.43 23h3.394v-5.652c0-.302.022-.604.112-.82.245-.605.804-1.23 1.741-1.23 1.229 0 1.72.927 1.72 2.288V23h3.394v-5.803c0-3.109-1.675-4.555-3.908-4.555-1.83 0-2.635 1.014-3.081 1.705h.022V12.88H13.43c.045.95 0 10.12 0 10.12z" fill="#fff"/></g><defs><clipPath id="clip0_20_160"><path fill="#fff" transform="translate(8 8)" d="M0 0h16v15H0z"/></clipPath></defs></svg>