<svg width="32" height="32" fill="none" xmlns="http://www.w3.org/2000/svg"><path stroke="#fff" d="M.5.5h31v31H.5z"/><g clip-path="url(#clip0_20_165)"><path d="M24.78 10.705a7.529 7.529 0 01-2.1.554 3.556 3.556 0 001.607-1.947 7.492 7.492 0 01-2.32.854 3.716 3.716 0 00-2.667-1.11c-2.018 0-3.654 1.574-3.654 3.517 0 .276.032.544.094.802-3.037-.147-5.73-1.547-7.531-3.676a3.403 3.403 0 00-.495 1.769c0 1.22.645 2.297 1.626 2.928a3.747 3.747 0 01-1.656-.44V14c0 1.705 1.26 3.127 2.931 3.45a3.795 3.795 0 01-1.65.06c.465 1.398 1.815 2.415 3.414 2.444A7.514 7.514 0 017.84 21.46c-.295 0-.585-.017-.871-.05a10.635 10.635 0 005.601 1.581c6.721 0 10.397-5.36 10.397-10.01 0-.152-.004-.304-.011-.455a7.278 7.278 0 001.823-1.821z" fill="#fff"/></g><defs><clipPath id="clip0_20_165"><path fill="#fff" transform="translate(7 9)" d="M0 0h18v14H0z"/></clipPath></defs></svg>